# xmcd CD database file
#
# Track frame offsets:
#	150
#	16830
#	37612
#
# Disc length: 783 seconds
#
# Revision: 3
# Processed by: cddbd v1.5.1PL0 Copyright (c) Steve Scherf et al.
# Submitted via: CDex 1.51
#
DISCID=10030d03
DTITLE=POSSIBILITY - mornin'
DYEAR=1900
DGENRE=JPop
TTITLE0=mornin'
TTITLE1=Night Light Insect
TTITLE2=Love Song
EXTD=YEAR: -
EXTT0=
EXTT1=
EXTT2=
PLAYORDER=
